<?xml version="1.0" standalone="no"?>
<!DOCTYPE svg PUBLIC "-//W3C//DTD SVG 20010904//EN"
 "http://www.w3.org/TR/2001/REC-SVG-20010904/DTD/svg10.dtd">
<svg version="1.0" xmlns="http://www.w3.org/2000/svg"
 width="1280.000000pt" height="1280.000000pt" viewBox="0 0 1280.000000 1280.000000"
 preserveAspectRatio="none">
<g transform="translate(0.000000,1280.000000) scale(0.100000,-0.100000)"
fill="#000000" stroke="none">
<path d="M4197 9073 c-5 -7 11 -124 16 -130 2 -1 77 -9 167 -18 195 -18 408
-42 471 -53 l44 -7 6 -60 c4 -33 12 -355 19 -715 18 -963 1 -3282 -25 -3308
-9 -9 -288 -51 -445 -67 -249 -25 -233 -19 -246 -94 l-12 -64 117 7 c252 14
1312 18 1680 7 206 -6 376 -9 379 -7 5 5 -15 116 -22 123 -2 2 -83 12 -181 23
-192 22 -446 57 -469 66 -7 3 -16 18 -19 33 -7 36 -25 872 -31 1413 l-4 416
82 6 c44 3 182 13 306 22 l225 16 50 -58 c935 -1084 1714 -1896 2074 -2163
117 -87 116 -86 272 -62 73 12 134 23 135 24 2 1 -31 41 -72 87 -270 304 -625
784 -1025 1387 -281 424 -660 1034 -659 1062 0 3 29 23 65 44 289 173 580 480
720 762 91 186 122 314 111 465 -8 110 -26 176 -77 280 -34 70 -58 101 -133
175 -250 247 -616 347 -1406 385 -246 11 -2106 14 -2113 3z m1804 -188 c626
-66 1036 -330 1134 -729 40 -163 12 -414 -65 -600 -180 -432 -667 -697 -1300
-709 l-125 -2 3 530 c3 598 19 1456 28 1498 l6 27 91 0 c51 0 153 -7 228 -15z"/>
</g>
</svg>
