<?xml version="1.0" encoding="utf-8"?>
<!-- Svg Vector Icons : http://www.onlinewebfonts.com/icon -->
<!DOCTYPE svg PUBLIC "-//W3C//DTD SVG 1.1//EN" "http://www.w3.org/Graphics/SVG/1.1/DTD/svg11.dtd">
<svg version="1.1" xmlns="http://www.w3.org/2000/svg" xmlns:xlink="http://www.w3.org/1999/xlink" x="0px" y="0px" viewBox="0 0 1000 1000" enable-background="new 0 0 1000 1000" xml:space="preserve">
<metadata> Svg Vector Icons : http://www.onlinewebfonts.com/icon </metadata>
<g><g transform="translate(0.000000,512.000000) scale(0.100000,-0.100000)"><path d="M3307.8,5003.9c-937.2-51.7-1815.1-253-2361.3-544.3c-239.6-126.5-366.1-216.6-513.7-364.2c-145.7-143.8-218.5-253-283.7-427.4l-42.2-109.3l-5.7-2510.8c-3.8-1656,1.9-2562.6,13.4-2664.2c53.7-412.1,356.5-741.7,929.6-1017.7c509.8-243.4,1295.7-431.2,2004.8-477.3c99.7-5.7,210.8-15.3,245.3-21.1l61.3-9.6v402.5v400.6l-128.4,13.4c-1038.8,95.8-1705.8,277.9-2129.4,578.8c-187.8,134.2-195.5,151.4-195.5,509.8c0,164.8,3.8,300.9,9.6,300.9s69-28.8,139.9-65.2c306.7-153.3,837.6-310.5,1326.3-392.9c277.9-46,730.2-97.7,877.8-97.7h99.7v402.5v402.5h-109.3c-283.7,0-941.1,105.4-1312.9,210.8C1485-351.2,1084.4-150,956,12.9c-42.2,53.7-44.1,76.7-49.8,368c-3.8,172.5-1.9,312.4,5.7,312.4c5.7,0,42.2-15.3,82.4-36.4c251.1-126.5,747.5-289.4,1125.1-366.1c337.3-69,981.3-151.4,1194.1-153.3h42.2v400.6v400.6l-166.8,11.5c-902.7,69-1730.7,299-2104.5,582.7c-172.5,130.3-182.1,157.2-182.1,494.5c0,189.7,7.7,295.2,19.2,295.2c11.5,0,69-24.9,130.3-55.6c458.1-230,1295.7-421.7,2112.2-483c373.8-28.8,1222.8-11.5,1562.1,28.8c716.8,88.2,1297.6,235.8,1748,442.8c80.5,36.4,153.3,67.1,161,67.1c9.6,0,17.3-124.6,17.3-277.9v-277.9h404.4h404.4l-7.7,897l-7.7,895.1l-47.9,126.5c-162.9,423.6-621,766.7-1341.7,1002.4C5291.5,4938.8,4262.2,5057.6,3307.8,5003.9z M4611.1,4172.1C5165,4112.7,5671,3995.8,6062,3832.8c304.7-126.5,542.4-297.1,580.8-417.8c40.2-126.5-245.3-341.2-676.6-507.9c-565.4-218.5-1328.2-335.4-2177.3-335.4c-693.8,0-1197.9,55.6-1728.8,191.7c-722.6,184-1215.2,477.2-1140.4,676.6c24.9,63.3,178.3,195.5,318.2,274.1C1956.5,4114.6,3349.9,4304.3,4611.1,4172.1z"/><path d="M6614,896.5C5977.6,783.4,5460.1,517,5032.7,87.7c-450.4-452.3-722.6-1004.3-816.5-1654.1c-34.5-247.2-11.5-728.3,46-979.4c111.2-463.8,304.8-856.7,598-1207.5c749.4-893.2,1941.6-1240.1,3066.6-887.4c210.8,65.1,504.1,208.9,720.7,352.6c239.6,161,601.8,523.3,762.9,762.9c868.2,1307.1,553.9,3016.8-722.6,3931.1C8394.6,614.8,8049.6,770,7668.1,860.1c-166.7,38.3-260.7,47.9-555.8,53.7C6870.8,919.5,6711.7,913.8,6614,896.5z M7553.1,62.8c722.6-195.5,1265-724.5,1466.2-1429.8c139.9-490.7,95.8-990.9-134.2-1456.7c-120.7-245.3-243.4-414-429.3-590.3c-964.1-908.5-2512.7-684.2-3181.6,461.9c-172.5,297.1-253,576.9-266.4,939.2c-13.4,396.7,49.8,690,220.4,1023.5C5511.9-437.5,6008.3-58,6633.1,81.9C6855.5,131.8,7338.5,122.2,7553.1,62.8z"/><path d="M6901.5-736.5c-331.6-143.8-329.7-605.7,3.8-743.7c168.7-70.9,383.3,3.8,483,166.7c122.7,199.3,51.7,448.5-159.1,555.8C7110.4-698.2,7005-692.4,6901.5-736.5z"/><path d="M6652.3-2747.1v-814.6h402.5h402.5v814.6v814.6h-402.5h-402.5V-2747.1z"/></g></g>
</svg>