<svg width="460" height="470" xmlns="http://www.w3.org/2000/svg"><path d="M.7.7c-.5.7 1.1 12.4 1.6 13L19 15.5c19.5 1.8 40.8 4.2 47.1 5.3l4.4.7.6 6C71.5 30.8 72.3 63 73 99c1.8 96.3.1 328.2-2.5 330.8a420 420 0 0 1-44.5 6.7c-24.9 2.5-23.3 1.9-24.6 9.4l-1.2 6.4 11.7-.7a3682.5 3682.5 0 0 1 205.9 0c.5-.5-1.5-11.6-2.2-12.3-.2-.2-8.3-1.2-18.1-2.3a650.3 650.3 0 0 1-46.9-6.6c-.7-.3-1.6-1.8-1.9-3.3-.7-3.6-2.5-87.2-3.1-141.3l-.4-41.6 8.2-.6 30.6-2.2 22.5-1.6 5 5.8C305 354 382.9 435.2 418.9 461.9c11.7 8.7 11.6 8.6 27.2 6.2l13.5-2.4c.2-.1-3.1-4.1-7.2-8.7-27-30.4-62.5-78.4-102.5-138.7-28.1-42.4-66-103.4-65.9-106.2 0-.3 2.9-2.3 6.5-4.4 28.9-17.3 58-48 72-76.2 9.1-18.6 12.2-31.4 11.1-46.5a66 66 0 0 0-7.7-28c-3.4-7-5.8-10.1-13.3-17.5C327.6 14.8 291 4.8 212 1 187.4-.1 1.4-.4.7.7zm180.4 18.8c62.6 6.6 103.6 33 113.4 72.9 4 16.3 1.2 41.4-6.5 60-18 43.2-66.7 69.7-130 70.9l-12.5.2.3-53c.3-59.8 1.9-145.6 2.8-149.8l.6-2.7h9.1c5.1 0 15.3.7 22.8 1.5z" fill="#563D7C" fill-rule="nonzero"/></svg>